# xmcd
# Track frame offsets:
# 150
# 15233
# 28586
# 41717
# 57171
# 67791
# 82876
# 93437
# 110206
# 124249
# 138776
# 153226
#
# Disc length: 2187 seconds
# Revision: 0
# Processed by: cddbd v1.4PL0 Copyright (c) Steve Scherf et al.
# Submitted via: VisiTrax 2.9.5.180 - For more info visit www.synapsa.com
#
DISCID=8e08890c
DTITLE=Rob Knowlton - I'm holden back the tears (of a broken heart)
DYEAR=1900
DGENRE=
TTITLE0=I'm holden back the tears (of a broken heart)
TTITLE1=Tonight Carmen
TTITLE2=`Where's the fire
TTITLE3=Amber
TTITLE4=I love a honky tonkin' (on a saturday night)
TTITLE5=The country hall of fame
TTITLE6=Try a little kindness
TTITLE7=It's just a feelin' that I get
TTITLE8=So far so good
TTITLE9=Old slewfoot
TTITLE10=I don't think she loves me anymore
TTITLE11=Thod´se were the good old days
EXTD=
EXTT0=
EXTT1=
EXTT2=
EXTT3=
EXTT4=
EXTT5=
EXTT6=
EXTT7=
EXTT8=
EXTT9=
EXTT10=
EXTT11=
PLAYORDER=
